<svg xmlns="http://www.w3.org/2000/svg" viewBox="0 0 556.84 411.54"><path d="M368,398a2.32,2.32,0,0,1-1.16-.39c-1.42-.87-3-3.39-3-6.86V20.25c0-3.47,1.55-6,3-6.91A2.21,2.21,0,0,1,368,13a2.85,2.85,0,0,1,1.88,1L478,124.89a7,7,0,0,0,5,2.11h51.64c8.26,0,15.23,9.85,15.23,21.5v114c0,11.65-7,21.5-15.18,21.5H483a7,7,0,0,0-5,2.11L369.89,397A2.9,2.9,0,0,1,368,398Z" style="fill:#0073e6"/><path d="M370.84,25l102.1,104.76A14,14,0,0,0,483,134h51.64c3.36,0,8.23,5.65,8.23,14.5v114c0,8.85-4.85,14.5-8.18,14.5H483a14,14,0,0,0-10,4.23L370.84,386V25M368,6a9.2,9.2,0,0,0-4.84,1.42c-3.85,2.39-6.29,7.38-6.29,12.85v370.5c0,5.47,2.44,10.46,6.29,12.83A9.17,9.17,0,0,0,368,405a9.75,9.75,0,0,0,6.95-3.11L483,291h51.69c12.25,0,22.18-12.76,22.18-28.5v-114c0-15.7-10-28.5-22.23-28.5H483L374.88,9.11A9.6,9.6,0,0,0,368,6Z" style="fill:#33333d"/><path d="M86.44,397.73c-35.65,0-56.58-15.94-67.85-51.68C7.85,312,7,264.57,7,206.05,7,85.48,12.38,12.27,86.93,12.27A130.55,130.55,0,0,1,112.84,15V42.31A81,81,0,0,0,93.31,39.8c-25,0-39.32,12.69-46.56,41.14-6.38,25.06-7.58,62.75-7.58,123.53,0,61.11,1.2,99,7.58,124.25,7.24,28.69,21.6,41.49,46.56,41.49a81,81,0,0,0,19.53-2.52V395A133.66,133.66,0,0,1,86.44,397.73Z" style="fill:#0073e6"/><path d="M86.93,19.27a120.85,120.85,0,0,1,18.91,1.57V33.76a84.29,84.29,0,0,0-12.52-1c-14.52,0-26,4-35,12.14C49.9,52.56,43.9,63.77,40,79.22c-6.56,25.77-7.8,63.9-7.8,125.25,0,61.67,1.24,100,7.79,126,3.92,15.54,9.91,26.82,18.31,34.5,9,8.26,20.51,12.27,35,12.27a84.29,84.29,0,0,0,12.52-1v12.9a124.34,124.34,0,0,1-19.4,1.59c-32.54,0-50.83-14-61.18-46.78C14.83,310.88,14,264,14,206.05c0-56.06.85-105.2,11.34-138.79s28.91-48,61.59-48m0-14C3,5.27,0,92.52,0,206.05,0,320.11,3,404.73,86.44,404.73a135,135,0,0,0,33.4-4.21V359h-2.46a73.76,73.76,0,0,1-24.06,4.2c-43.22,0-47.15-43.62-47.15-158.73C46.17,89.89,50.1,46.8,93.32,46.8A73.76,73.76,0,0,1,117.38,51h2.46V9.48A133.33,133.33,0,0,0,86.93,5.27Z" style="fill:#33333d"/><path d="M104.84,307.84a29.1,29.1,0,0,1-11,2.21c-27.35,0-28.32-44.51-28.32-104.5,0-59.71,1-105.6,28.48-105.6a28.77,28.77,0,0,1,10.79,2.21V124H104a16.55,16.55,0,0,0-7.88-2.21c-14.16,0-15.45,22.67-15.45,82.93,0,60.55,1.29,83.49,15.45,83.49A16.55,16.55,0,0,0,104,286h.81Z" style="fill:#33333d"/><path d="M119.84,256.92A22,22,0,0,1,113,258c-17.1,0-17.7-22.26-17.7-52.25S95.9,153,113.1,153a21.71,21.71,0,0,1,6.74,1.11V165h-.51a12.19,12.19,0,0,0-4.93-1.11c-8.85,0-9.65,11.34-9.65,41.47s.8,41.75,9.65,41.75a12.19,12.19,0,0,0,4.93-1.11h.51Z" style="fill:#33333d"/><path d="M271.93,399.54V227.27a6,6,0,0,0-6-6H210.35a6,6,0,0,0-6,6V398.5H155.53V12h48.82V171.69a6,6,0,0,0,6,6h55.58a6,6,0,0,0,6-6V12h48.82V399.54Z" style="fill:#0073e6"/><path d="M314.75,18V393.54H277.93V227.27a12,12,0,0,0-12-12H210.35a12,12,0,0,0-12,12V392.5H161.53V18h36.82V171.69a12,12,0,0,0,12,12h55.58a12,12,0,0,0,12-12V18h36.82m12-12H265.93V171.69H210.35V6H149.53V404.5h60.82V227.27h55.58V405.54h60.82V6Z" style="fill:#33333d"/></svg>