<svg xmlns="http://www.w3.org/2000/svg" viewBox="0 0 2107.23 478"><path d="M133,386.45a154,154,0,0,1-35.91,4C3,390.49,0,305,0,199.29,0,94.08,3,6.07,97.12,6.07a159.19,159.19,0,0,1,35.91,4V61.2H130.5a83.52,83.52,0,0,0-23.77-3.54c-42,0-46,36.93-46,140.11s4,140.62,46,140.62a83.52,83.52,0,0,0,23.77-3.54H133Z" style="fill:#33333d"/><path d="M300.46,363.68C285.79,384.93,261,393,233.69,393c-26.3,0-50.07-7.59-64.24-28.32-14.66-21.25-17.7-55.64-17.7-115.84,0-64.74,3.54-95.09,17.7-115.83,14.67-21.24,39.46-29.34,66.77-29.34,26.3,0,50.08,7.59,64.24,28.33,14.67,21.24,17.7,55.64,17.7,115.83C318.16,312.6,314.62,343,300.46,363.68Zm-48-25.29C258,326.76,259,305,259,248.36c0-57.16-1-78.41-6.57-90-3-6.57-8.09-12.14-17.2-12.14s-14.67,5.57-17.7,12.14c-5.57,11.63-6.58,32.88-6.58,90,0,56.65,1,78.4,6.58,90,3,6.58,8.6,11.64,17.7,11.64S249.37,345,252.41,338.39Z" style="fill:#33333d"/><path d="M411.23,0V388.47H353.57V0Z" style="fill:#33333d"/><path d="M509.36,12.65V72.33H451.69V12.65Zm0,95.6V388.47H451.69V108.25Z" style="fill:#33333d"/><path d="M592.31,108.25l11.12,35.4c4.05-25.29,23.78-39.45,52.1-39.45,23.78,0,40,10.12,48.06,27.31,7.08,15.18,7.58,34.4,7.58,62.22V388.47H653V193.73c0-13.15,0-21.25-3-28.33s-9.11-11.13-18.72-11.13C609,154.27,608,174,608,188.16V388.47H549.82V108.25Z" style="fill:#33333d"/><path d="M812.84,8.09V165.4H867V8.09h59.18V388.47H867v-170H812.84v170H753.66V8.09Z" style="fill:#33333d"/><path d="M1109.25,382.4a197.64,197.64,0,0,1-55.13,8.09c-36.93,0-58.17-12.14-71.83-34.9s-17.7-53.62-17.7-109.76c0-76.38,7.59-142.14,78.91-142.14,26.81,0,46,9.11,58.67,29.85,16.69,27.31,17.2,65.75,17.2,134.54h-98.63c0,55.14,10.11,77.9,42.48,77.9,19.73,0,43.5-8.09,43.5-8.09h2.53Zm-45.52-154.78c0-55.14-1.52-81.44-20.74-81.44-20.74,0-22.25,29.34-22.25,81.44Z" style="fill:#33333d"/><path d="M1197.27,108.25l11.13,34.9c4-23.27,21.24-38.95,51.08-38.95,28.84,0,45,14.67,49.58,40,4.55-23.27,19.72-40,50.07-40,23.78,0,38.95,10.12,47,26.81,7.59,15.17,7.59,34.9,7.59,60.19V388.47h-58.17V189.68c0-9.1,0-18.21-3-24.78-2.53-5.57-7.59-10.63-17.71-10.63-20.74,0-21.24,20.74-21.24,33.89V388.47h-58.17V189.68c0-9.1,0-18.21-3-24.78-3-6.07-8.09-10.63-17.7-10.63-20.74,0-21.75,20.24-21.75,33.89V388.47h-58.17V108.25Z" style="fill:#33333d"/><path d="M1453.22,478V108.25h41l11.13,34.9c5.56-24.28,21.75-38.95,48-38.95,19.73,0,36.92,8.09,48.05,26.3,14.16,23.77,16.69,58.68,16.69,113.81,0,60.7-3,97.12-17.19,119.88-11.13,18.21-28.84,28.33-50.08,28.33-19.73,0-33.89-8.6-40-28.84V478Zm99.14-145.17c5.56-11.63,6.57-32.37,6.57-85.49,0-52.6-1-73.34-6.57-85-3-6.58-8.6-12.14-17.71-12.14s-14.67,5.56-17.7,12.14c-5.56,11.63-6.07,32.37-6.07,85,0,53.12.51,73.86,6.07,85.49,3,6.57,8.6,11.63,17.7,11.63S1549.32,339.4,1552.36,332.83Z" style="fill:#33333d"/><path d="M1711.19,0V139.1c5-24.28,22.25-34.9,47-34.9,25.29,0,41,11.13,48.56,27.31,7.08,15.18,7.08,34.4,7.08,62.22V388.47H1755.7V193.73c0-13.15,0-21.25-3-28.33s-9.1-11.13-18.71-11.13c-22.26,0-22.76,19.73-22.76,33.89V388.47h-57.67V0Z" style="fill:#33333d"/><path d="M1911,12.65V72.33h-57.66V12.65Zm0,95.6V388.47h-57.66V108.25Z" style="fill:#33333d"/><path d="M2009.11,0V388.47h-57.67V0Z" style="fill:#33333d"/><path d="M2107.23,0V388.47h-57.66V0Z" style="fill:#33333d"/></svg>