<svg xmlns="http://www.w3.org/2000/svg" viewBox="0 0 339.84 399.73"><path d="M151,392.73a2.42,2.42,0,0,1-1.16-.39c-1.42-.88-2.95-3.4-2.95-6.86V15c0-3.47,1.55-6,3-6.91A2.18,2.18,0,0,1,151,7.71a2.85,2.85,0,0,1,1.88,1L261,119.61a7,7,0,0,0,5,2.12h51.64c8.26,0,15.23,9.84,15.23,21.5v114c0,11.65-6.95,21.5-15.18,21.5H266a7,7,0,0,0-5,2.11L152.89,391.73A2.91,2.91,0,0,1,151,392.73Z" style="fill:#0073e6"/><path d="M153.84,19.74,255.94,124.5a14,14,0,0,0,10,4.23h51.64c3.36,0,8.23,5.65,8.23,14.5v114c0,8.85-4.85,14.5-8.18,14.5H266a14,14,0,0,0-10,4.23L153.84,380.73v-361M151,.71a9.33,9.33,0,0,0-4.85,1.41c-3.84,2.4-6.28,7.38-6.28,12.86v370.5c0,5.47,2.44,10.46,6.28,12.82a9.24,9.24,0,0,0,4.83,1.43,9.79,9.79,0,0,0,7-3.11L266,285.73h51.69c12.25,0,22.18-12.76,22.18-28.5v-114c0-15.71-10-28.5-22.23-28.5H266L157.88,3.83A9.59,9.59,0,0,0,151,.71Z" style="fill:#33333d"/><path d="M86.44,392.45c-35.65,0-56.58-15.93-67.85-51.67C7.85,306.77,7,259.3,7,200.78,7,80.21,12.38,7,86.93,7a130.68,130.68,0,0,1,25.91,2.74V37a80.94,80.94,0,0,0-19.52-2.52c-25,0-39.33,12.69-46.57,41.15-6.38,25.06-7.58,62.75-7.58,123.53,0,61.1,1.2,99,7.58,124.24,7.24,28.7,21.6,41.49,46.57,41.49a81.5,81.5,0,0,0,19.52-2.51v27.29A134.57,134.57,0,0,1,86.44,392.45Z" style="fill:#0073e6"/><path d="M86.93,14a120.85,120.85,0,0,1,18.91,1.57V28.49a84.26,84.26,0,0,0-12.53-1c-14.51,0-25.95,4-35,12.14C49.9,47.28,43.9,58.5,40,73.94c-6.56,25.77-7.8,63.91-7.8,125.26,0,61.67,1.24,100,7.79,126,3.92,15.54,9.91,26.82,18.31,34.49,9,8.27,20.51,12.28,35,12.28a84.32,84.32,0,0,0,12.53-1v12.9a124.47,124.47,0,0,1-19.4,1.58c-32.54,0-50.83-14-61.18-46.78C14.83,305.61,14,258.69,14,200.78c0-56.06.85-105.2,11.34-138.79S54.25,14,86.93,14m0-14C3,0,0,87.25,0,200.78c0,114,3,198.67,86.44,198.67a135.26,135.26,0,0,0,33.4-4.2V353.73h-2.46a73.79,73.79,0,0,1-24.07,4.2c-43.21,0-47.14-43.62-47.14-158.73,0-114.58,3.93-157.68,47.14-157.68a73.63,73.63,0,0,1,24.07,4.21h2.46V4.2A133.63,133.63,0,0,0,86.93,0Z" style="fill:#33333d"/><path d="M104.84,302.57a29.1,29.1,0,0,1-11,2.21c-27.35,0-28.32-44.51-28.32-104.5,0-59.71,1-105.6,28.48-105.6a28.77,28.77,0,0,1,10.79,2.21v21.84H104a16.55,16.55,0,0,0-7.88-2.21c-14.16,0-15.45,22.66-15.45,82.93,0,60.54,1.29,83.49,15.45,83.49a16.55,16.55,0,0,0,7.88-2.21h.81Z" style="fill:#33333d"/><path d="M119.84,251.65a22.14,22.14,0,0,1-6.84,1.1c-17.1,0-17.7-22.25-17.7-52.25,0-29.85.6-52.8,17.8-52.8a21.71,21.71,0,0,1,6.74,1.11v10.92h-.51a12.19,12.19,0,0,0-4.93-1.11c-8.85,0-9.65,11.34-9.65,41.47s.8,41.74,9.65,41.74a12.28,12.28,0,0,0,4.93-1.1h.51Z" style="fill:#33333d"/></svg>