<svg xmlns="http://www.w3.org/2000/svg" viewBox="0 0 2477.69 478"><path d="M133,386.45a154,154,0,0,1-35.91,4C3,390.49,0,305,0,199.29,0,94.08,3,6.07,97.12,6.07a159.19,159.19,0,0,1,35.91,4V61.2H130.5a83.52,83.52,0,0,0-23.77-3.54c-42,0-46,36.93-46,140.11s4,140.62,46,140.62a83.52,83.52,0,0,0,23.77-3.54H133Z" style="fill:#33333d"/><path d="M300.46,363.68C285.79,384.93,261,393,233.69,393c-26.3,0-50.07-7.59-64.24-28.32-14.66-21.25-17.7-55.64-17.7-115.84,0-64.74,3.54-95.09,17.7-115.83,14.67-21.24,39.46-29.34,66.77-29.34,26.3,0,50.08,7.59,64.24,28.33,14.67,21.24,17.7,55.64,17.7,115.83C318.16,312.6,314.62,343,300.46,363.68Zm-48-25.29C258,326.76,259,305,259,248.36c0-57.16-1-78.41-6.57-90-3-6.57-8.09-12.14-17.2-12.14s-14.67,5.57-17.7,12.14c-5.57,11.63-6.58,32.88-6.58,90,0,56.65,1,78.4,6.58,90,3,6.58,8.6,11.64,17.7,11.64S249.37,345,252.41,338.39Z" style="fill:#33333d"/><path d="M411.23,0V388.47H353.57V0Z" style="fill:#33333d"/><path d="M509.36,12.65V72.33H451.69V12.65Zm0,95.6V388.47H451.69V108.25Z" style="fill:#33333d"/><path d="M592.31,108.25l11.12,35.4c4.05-25.29,23.78-39.45,52.1-39.45,23.78,0,40,10.12,48.06,27.31,7.08,15.18,7.58,34.4,7.58,62.22V388.47H653V193.73c0-13.15,0-21.25-3-28.33s-9.11-11.13-18.72-11.13C609,154.27,608,174,608,188.16V388.47H549.82V108.25Z" style="fill:#33333d"/><path d="M812.84,8.09V165.4H867V8.09h59.18V388.47H867v-170H812.84v170H753.66V8.09Z" style="fill:#33333d"/><path d="M1109.25,382.4a197.64,197.64,0,0,1-55.13,8.09c-36.93,0-58.17-12.14-71.83-34.9s-17.7-53.62-17.7-109.76c0-76.38,7.59-142.14,78.91-142.14,26.81,0,46,9.11,58.67,29.85,16.69,27.31,17.2,65.75,17.2,134.54h-98.63c0,55.14,10.11,77.9,42.48,77.9,19.73,0,43.5-8.09,43.5-8.09h2.53Zm-45.52-154.78c0-55.14-1.52-81.44-20.74-81.44-20.74,0-22.25,29.34-22.25,81.44Z" style="fill:#33333d"/><path d="M1197.27,108.25l11.13,34.9c4-23.27,21.24-38.95,51.08-38.95,28.84,0,45,14.67,49.58,40,4.55-23.27,19.72-40,50.07-40,23.78,0,38.95,10.12,47,26.81,7.59,15.17,7.59,34.9,7.59,60.19V388.47h-58.17V189.68c0-9.1,0-18.21-3-24.78-2.53-5.57-7.59-10.63-17.71-10.63-20.74,0-21.24,20.74-21.24,33.89V388.47h-58.17V189.68c0-9.1,0-18.21-3-24.78-3-6.07-8.09-10.63-17.7-10.63-20.74,0-21.75,20.24-21.75,33.89V388.47h-58.17V108.25Z" style="fill:#33333d"/><path d="M1453.22,478V108.25h41l11.13,34.9c5.56-24.28,21.75-38.95,48-38.95,19.73,0,36.92,8.09,48.05,26.3,14.16,23.77,16.69,58.68,16.69,113.81,0,60.7-3,97.12-17.19,119.88-11.13,18.21-28.84,28.33-50.08,28.33-19.73,0-33.89-8.6-40-28.84V478Zm99.14-145.17c5.56-11.63,6.57-32.37,6.57-85.49,0-52.6-1-73.34-6.57-85-3-6.58-8.6-12.14-17.71-12.14s-14.67,5.56-17.7,12.14c-5.56,11.63-6.07,32.37-6.07,85,0,53.12.51,73.86,6.07,85.49,3,6.57,8.6,11.63,17.7,11.63S1549.32,339.4,1552.36,332.83Z" style="fill:#33333d"/><path d="M1711.19,0V139.1c5-24.28,22.25-34.9,47-34.9,25.29,0,41,11.13,48.56,27.31,7.08,15.18,7.08,34.4,7.08,62.22V388.47H1755.7V193.73c0-13.15,0-21.25-3-28.33s-9.1-11.13-18.71-11.13c-22.26,0-22.76,19.73-22.76,33.89V388.47h-57.67V0Z" style="fill:#33333d"/><path d="M1911,12.65V72.33h-57.66V12.65Zm0,95.6V388.47h-57.66V108.25Z" style="fill:#33333d"/><path d="M2009.11,0V388.47h-57.67V0Z" style="fill:#33333d"/><path d="M2107.23,0V388.47h-57.66V0Z" style="fill:#33333d"/><path d="M2294.27,381.66a2.11,2.11,0,0,1-1-.35c-1.33-.81-2.76-3.19-2.76-6.48V15.05c0-3.29,1.45-5.7,2.8-6.54a2,2,0,0,1,1-.31,2.51,2.51,0,0,1,1.67.89L2401,116.8a7,7,0,0,0,5,2.11h50.15c7.9,0,14.58,9.47,14.58,20.68v110.7c0,11.21-6.66,20.67-14.54,20.67H2406a7,7,0,0,0-5,2.12L2296,380.76A2.66,2.66,0,0,1,2294.27,381.66Z" style="fill:#0073e6"/><path d="M2297.48,20.67l98.45,101a14,14,0,0,0,10,4.22h50.15c3,0,7.58,5.46,7.58,13.68v110.7c0,8.22-4.54,13.67-7.54,13.67H2406a14,14,0,0,0-10,4.23l-98.45,101V20.67M2294.29,1.2a9,9,0,0,0-4.71,1.37c-3.73,2.32-6.1,7.17-6.1,12.48V374.83c0,5.31,2.37,10.15,6.1,12.45a9,9,0,0,0,4.69,1.38,9.5,9.5,0,0,0,6.75-3L2406,278h50.19c11.9,0,21.54-12.39,21.54-27.67V139.59c0-15.25-9.69-27.68-21.58-27.68H2406L2301,4.23a9.34,9.34,0,0,0-6.71-3Z" style="fill:#33333d"/><path d="M2231.62,381.4c-34.51,0-54.77-15.43-65.69-50-10.41-33-11.24-79.08-11.24-135.89,0-116.95,5.21-188,77.41-188a125.85,125.85,0,0,1,25,2.62V36.21a79.05,79.05,0,0,0-18.75-2.38c-24,0-38.45,12.74-45.41,40.11-6.2,24.35-7.37,61-7.37,120,0,59.35,1.17,96.17,7.36,120.7,7,27.59,21.4,40.44,45.42,40.44a78.48,78.48,0,0,0,18.75-2.39v26.08A129.54,129.54,0,0,1,2231.62,381.4Z" style="fill:#0073e6"/><path d="M2232.1,14.51a116.81,116.81,0,0,1,18,1.46V27.7a81.77,81.77,0,0,0-11.75-.87c-14.2,0-25.4,3.89-34.25,11.89-8.24,7.46-14.11,18.41-18,33.49-6.37,25.07-7.58,62.12-7.58,121.73,0,59.92,1.21,97.17,7.58,122.41,3.83,15.17,9.68,26.19,17.9,33.7,8.86,8.09,20.08,12,34.3,12a81.77,81.77,0,0,0,11.75-.87v11.71a120.31,120.31,0,0,1-18.43,1.48c-31.38,0-49-13.5-59-45.14-10.11-32.05-10.91-77.59-10.91-133.79,0-54.4.82-102.08,11-134.65s27.9-46.31,59.42-46.31m0-14c-81.55,0-84.41,84.72-84.41,195,0,110.76,2.86,192.93,83.93,192.93a131.15,131.15,0,0,0,32.43-4.08V344h-2.38a71.64,71.64,0,0,1-23.37,4.08c-42,0-45.78-42.36-45.78-154.14,0-111.26,3.81-153.11,45.78-153.11a71.64,71.64,0,0,1,23.37,4.08h2.38V4.59a129.56,129.56,0,0,0-32-4.08Z" style="fill:#33333d"/><path d="M2249.49,294.32a28.31,28.31,0,0,1-10.63,2.14c-26.56,0-27.5-43.22-27.5-101.47,0-58,.94-102.55,27.66-102.55a27.88,27.88,0,0,1,10.47,2.15V115.8h-.78a16.07,16.07,0,0,0-7.66-2.15c-13.75,0-15,22-15,80.54,0,58.79,1.25,81.07,15,81.07a16.07,16.07,0,0,0,7.66-2.15h.78Z" style="fill:#33333d"/><path d="M2264.05,244.87a21.44,21.44,0,0,1-6.64,1.07c-16.6,0-17.19-21.61-17.19-50.73s.59-51.28,17.29-51.28a21,21,0,0,1,6.54,1.08v10.6h-.48a11.94,11.94,0,0,0-4.79-1.07c-8.59,0-9.38,11-9.38,40.27s.79,40.53,9.38,40.53a11.94,11.94,0,0,0,4.79-1.07h.48Z" style="fill:#33333d"/></svg>